# xmcd
#
# Track frame offsets:
#	150
#	12698
#	27885
#	44167
#	54893
#	72418
#	88013
#	102222
#	117734
#	131927
#	149158
#	164670
#	176234
#	193260
#	205650
#
# Disc length: 2908 seconds
#
# Revision: 1
# Processed by: cddbd v1.5.2PL0 Copyright (c) Steve Scherf et al.
# Submitted via: audiograbber 1.83.01
#
DISCID=f40b5a0f
DTITLE=Tammy Wynette - Chartbuster Karaoke Country Artist Series
DYEAR=1900
DGENRE=Karaoke
TTITLE0=(We're Not) The Jet Set
TTITLE1=Cowboys Don't Shoot Straight (Like They Used To)
TTITLE2=Talkin' To Myself Again
TTITLE3=Did You Ever
TTITLE4=Sometimes When We Touch
TTITLE5=Alive And Well
TTITLE6=Too Far Gone
TTITLE7=Unwed Fathers
TTITLE8=God's Gonna Get'cha (For That)
TTITLE9=Justified And Ancient
TTITLE10=You Still Get To Me In My Dreams
TTITLE11=They Call It Making Love
TTITLE12=(I'm Not) A Candle In The Wind
TTITLE13=Let's Get Together One More Time
TTITLE14=Sweet Dreams
EXTD=
EXTT0=
EXTT1=
EXTT2=
EXTT3=
EXTT4=
EXTT5=
EXTT6=
EXTT7=
EXTT8=
EXTT9=
EXTT10=
EXTT11=
EXTT12=
EXTT13=
EXTT14=
PLAYORDER=
